<svg width="512" height="512" viewBox="0 0 512 512" fill="none" xmlns="http://www.w3.org/2000/svg">
  <!-- Cube/Database structure - centered and scaled to fit -->
  <g transform="translate(256, 226)">
    <!-- Top face -->
    <path d="M 0,-120 L 120,-60 L 0,0 L -120,-60 Z" fill="#93C5FD"/>
    <!-- Right face -->
    <path d="M 120,-60 L 120,120 L 0,180 L 0,0 Z" fill="#60A5FA"/>
    <!-- Left face -->
    <path d="M -120,-60 L 0,0 L 0,180 L -120,120 Z" fill="#3B82F6"/>

    <!-- Middle layer -->
    <path d="M 0,0 L 120,60 L 0,120 L -120,60 Z" fill="#93C5FD" opacity="0.9"/>
    <path d="M 120,60 L 120,180 L 0,240 L 0,120 Z" fill="#60A5FA" opacity="0.9"/>
    <path d="M -120,60 L 0,120 L 0,240 L -120,180 Z" fill="#3B82F6" opacity="0.9"/>

    <!-- Accent lines for depth -->
    <line x1="-120" y1="-60" x2="-120" y2="120" stroke="#2563EB" stroke-width="3"/>
    <line x1="120" y1="-60" x2="120" y2="180" stroke="#3B82F6" stroke-width="3"/>
  </g>
</svg>
